# Blender v3.0.1 OBJ File: ''
# www.blender.org
mtllib cubo.mtl
o Box
v 1.250000 1.250000 1.250000
v 1.250000 -1.250000 1.250000
v 1.250000 -1.250000 -1.250000
v 1.250000 1.250000 -1.250000
v -1.250000 1.250000 -1.250000
v -1.250000 -1.250000 -1.250000
v -1.250000 -1.250000 1.250000
v -1.250000 1.250000 1.250000
vt 0.000000 0.000000
vt 1.000000 1.000000
vt 0.000000 1.000000
vt 0.000000 0.000000
vt 1.000000 1.000000
vt 0.000000 1.000000
vt 0.000000 0.000000
vt 1.000000 1.000000
vt 0.000000 1.000000
vt 0.000000 0.000000
vt 1.000000 1.000000
vt 0.000000 1.000000
vt 0.000000 0.000000
vt 1.000000 1.000000
vt 0.000000 1.000000
vt 1.000000 0.000000
vt 1.000000 0.000000
vt 1.000000 0.000000
vt 1.000000 0.000000
vt 1.000000 0.000000
vn 1.0000 -0.0000 0.0000
vn -1.0000 0.0000 0.0000
vn 0.0000 1.0000 0.0000
vn 0.0000 -1.0000 -0.0000
vn 0.0000 -0.0000 1.0000
vn 0.0000 0.0000 -1.0000
usemtl Standard
s 1
f 2/1/1 4/2/1 1/3/1
f 6/4/2 8/5/2 5/6/2
f 8/7/3 4/2/3 5/6/3
f 6/4/4 2/8/4 7/9/4
f 7/10/5 1/11/5 8/12/5
f 3/13/6 5/14/6 4/15/6
f 2/1/1 3/16/1 4/2/1
f 6/4/2 7/17/2 8/5/2
f 8/7/3 1/18/3 4/2/3
f 6/4/4 3/16/4 2/8/4
f 7/10/5 2/19/5 1/11/5
f 3/13/6 6/20/6 5/14/6
