# This file uses centimeters as units for non-parametric coordinates.

mtllib casa.mtl
g default
v -9.910664 0.000000 -1.006139
v -4.910664 0.000000 -1.006139
v -9.910664 3.000000 -1.006139
v -4.910664 3.000000 -1.006139
v -9.910664 3.000000 -6.006139
v -4.910664 3.000000 -6.006139
v -9.910664 0.000000 -6.006139
v -4.910664 0.000000 -6.006139
v -4.910664 2.009071 -6.006139
v -9.910664 2.009071 -6.006139
v -9.910664 2.009071 -1.006139
v -4.910664 2.009071 -1.006139
v -4.910664 3.000000 -4.011183
v -9.910664 3.000000 -4.011183
v -9.910664 2.009071 -4.011183
v -9.910664 0.000000 -4.011183
v -4.910664 0.000000 -4.011183
v -4.910664 2.009071 -4.011183
v -4.910664 3.000000 -2.996853
v -9.910664 3.000000 -2.996853
v -9.910664 2.009071 -2.996853
v -9.910664 0.000000 -2.996853
v -4.910664 0.000000 -2.996853
v -4.910664 2.009071 -2.996853
v -9.771776 2.009071 -4.011183
v -9.771776 2.009071 -2.996853
v -9.771776 0.000000 -4.011183
v -9.771776 0.000000 -2.996853
v -5.051877 0.000000 -4.011183
v -5.051877 2.009071 -4.011183
v -5.051877 2.009071 -2.996853
v -5.051877 0.000000 -2.996853
v -9.771776 2.866435 -4.011183
v -9.771776 2.866435 -2.996853
v -5.051877 2.866435 -2.996853
v -5.051877 2.866435 -4.011183
v -9.771776 2.009071 -1.183661
v -9.771776 2.866435 -1.183661
v -5.051877 2.009071 -1.183661
v -5.051877 2.866435 -1.183661
v -9.771776 2.009071 -5.914519
v -9.771776 2.866435 -5.914519
v -5.051877 2.009071 -5.914519
v -5.051877 2.866435 -5.914519
v -9.771776 0.000000 -1.183661
v -5.051877 0.000000 -1.183661
v -9.771776 0.000000 -5.914519
v -5.051877 0.000000 -5.914519
vt 0.266530 0.019535
vt 0.560608 -0.101406
vt 0.339094 0.195982
vt 0.633172 0.075041
vt 0.460035 0.490060
vt 0.754113 0.369119
vt 0.532600 0.666507
vt 0.826678 0.545566
vt 0.930560 0.296555
vt -0.027549 0.140476
vt 0.045016 0.316923
vt 0.778082 0.427401
vt 0.812395 0.345151
vt 0.021047 0.258641
vt 0.484004 0.548342
vt 0.315125 0.137700
vt 0.691454 0.051072
vt 0.705859 0.251785
vt 0.162351 0.268669
vt 0.411781 0.372726
vt 0.138382 0.210387
vt 0.089786 0.092222
vt 0.882306 0.179220
vt 0.764141 0.227816
vt 0.681324 0.192126
vt 0.222009 0.244134
vt 0.387246 0.313067
vt 0.198040 0.185852
vt 0.149444 0.067687
vt 0.857771 0.119562
vt 0.739606 0.168158
vt 0.383056 0.521279
vt 0.438413 0.464081
vt 0.444298 0.467585
vt 0.386687 0.527115
vt 0.481964 0.358090
vt 0.488231 0.360648
vt 0.272880 0.566791
vt 0.275377 0.573140
vt 0.783322 0.681804
vt 0.672497 0.723998
vt 0.669014 0.717938
vt 0.780974 0.675276
vt 0.616763 0.779583
vt 0.610823 0.775957
vt 0.571802 0.884616
vt 0.565455 0.881949
vt 0.461982 0.514638
vt 0.429192 0.542747
vt 0.593874 0.728735
vt 0.626846 0.701317
vt 0.401162 0.616098
vt 0.370625 0.625151
vt 0.516518 0.781591
vt 0.532818 0.750181
vt 0.542607 0.460574
vt 0.526152 0.492001
vt 0.657020 0.624747
vt 0.687676 0.616140
vt 0.467771 0.853309
vt 0.287822 0.667424
vt 0.591275 0.389055
vt 0.770960 0.575484
vt 0.609203 0.016759
vt 0.809619 0.002477
vn 0.000000 0.000000 1.000000
vn 0.000000 0.000000 1.000000
vn 0.000000 0.000000 1.000000
vn 0.000000 0.000000 1.000000
vn 0.000000 1.000000 0.000000
vn 0.000000 1.000000 0.000000
vn 0.000000 1.000000 0.000000
vn 0.000000 1.000000 0.000000
vn 0.000000 0.000000 -1.000000
vn 0.000000 0.000000 -1.000000
vn 0.000000 0.000000 -1.000000
vn 0.000000 0.000000 -1.000000
vn 1.000000 0.000000 0.000000
vn 1.000000 0.000000 0.000000
vn 1.000000 0.000000 0.000000
vn 1.000000 0.000000 0.000000
vn -1.000000 0.000000 0.000000
vn -1.000000 0.000000 0.000000
vn -1.000000 0.000000 0.000000
vn -1.000000 0.000000 0.000000
vn 0.000000 0.000000 -1.000000
vn 0.000000 0.000000 -1.000000
vn -1.000000 0.000000 0.000000
vn -1.000000 0.000000 0.000000
vn 0.000000 0.000000 1.000000
vn 0.000000 0.000000 1.000000
vn 1.000000 0.000000 0.000000
vn 1.000000 0.000000 0.000000
vn 0.000000 1.000000 0.000000
vn 0.000000 1.000000 0.000000
vn 0.000000 1.000000 0.000000
vn 0.000000 1.000000 0.000000
vn -1.000000 0.000000 0.000000
vn -1.000000 0.000000 0.000000
vn -1.000000 0.000000 0.000000
vn -1.000000 0.000000 0.000000
vn -1.000000 0.000000 0.000000
vn -1.000000 0.000000 0.000000
vn 1.000000 0.000000 0.000000
vn 1.000000 0.000000 0.000000
vn 1.000000 0.000000 0.000000
vn 1.000000 0.000000 0.000000
vn 1.000000 0.000000 0.000000
vn 1.000000 0.000000 0.000000
vn 0.000000 -1.000000 0.000000
vn 0.000000 -1.000000 0.000000
vn 0.000000 -1.000000 0.000000
vn 0.000000 -1.000000 0.000000
vn 0.000000 0.000000 1.000000
vn 0.000000 0.000000 1.000000
vn 0.000000 0.000000 1.000000
vn 0.000000 0.000000 1.000000
vn 0.000000 0.000000 -1.000000
vn 0.000000 0.000000 -1.000000
vn 0.000000 0.000000 -1.000000
vn 0.000000 0.000000 -1.000000
vn 0.000000 0.000000 1.000000
vn 0.000000 0.000000 1.000000
vn 0.000000 0.000000 1.000000
vn 0.000000 0.000000 1.000000
vn 0.000000 -1.000000 0.000000
vn 0.000000 -1.000000 0.000000
vn 0.000000 -1.000000 0.000000
vn 0.000000 -1.000000 0.000000
vn 0.000000 0.000000 -1.000000
vn 0.000000 0.000000 -1.000000
vn 0.000000 0.000000 -1.000000
vn 0.000000 0.000000 -1.000000
vn 1.000000 0.000000 0.000000
vn 1.000000 0.000000 0.000000
vn 1.000000 0.000000 0.000000
vn 1.000000 0.000000 0.000000
vn -1.000000 0.000000 0.000000
vn -1.000000 0.000000 0.000000
vn -1.000000 0.000000 0.000000
vn -1.000000 0.000000 0.000000
vn 1.000000 0.000000 0.000000
vn 1.000000 0.000000 0.000000
vn 1.000000 0.000000 0.000000
vn 1.000000 0.000000 0.000000
vn -1.000000 0.000000 0.000000
vn -1.000000 0.000000 0.000000
vn -1.000000 0.000000 0.000000
vn -1.000000 0.000000 0.000000
vn 1.000000 0.000000 0.000000
vn 1.000000 0.000000 0.000000
vn 1.000000 0.000000 0.000000
vn 1.000000 0.000000 0.000000
vn -1.000000 0.000000 0.000000
vn -1.000000 0.000000 0.000000
vn -1.000000 0.000000 0.000000
vn -1.000000 0.000000 0.000000
vn 0.000000 0.000000 -1.000000
vn 0.000000 0.000000 -1.000000
vn 0.000000 0.000000 -1.000000
vn 0.000000 0.000000 -1.000000
vn 0.000000 0.000000 1.000000
vn 0.000000 0.000000 1.000000
vn 0.000000 0.000000 1.000000
vn 0.000000 0.000000 1.000000
vn 0.000000 0.000000 -1.000000
vn 0.000000 0.000000 -1.000000
vn 0.000000 0.000000 -1.000000
vn 0.000000 0.000000 -1.000000
vn 0.000000 0.000000 1.000000
vn 0.000000 0.000000 1.000000
vn 0.000000 0.000000 1.000000
vn 0.000000 0.000000 1.000000
vn -1.000000 0.000000 0.000000
vn -1.000000 0.000000 0.000000
vn -1.000000 0.000000 0.000000
vn -1.000000 0.000000 0.000000
vn -1.000000 0.000000 0.000000
vn -1.000000 0.000000 0.000000
vn -1.000000 0.000000 0.000000
vn -1.000000 0.000000 0.000000
vn 0.000000 -1.000000 0.000000
vn 0.000000 -1.000000 0.000000
vn 0.000000 -1.000000 0.000000
vn 0.000000 -1.000000 0.000000
vn 0.000000 -1.000000 0.000000
vn 0.000000 -1.000000 0.000000
vn 0.000000 -1.000000 0.000000
vn 0.000000 -1.000000 0.000000
vn 0.000000 -1.000000 0.000000
vn 0.000000 -1.000000 0.000000
vn 0.000000 -1.000000 0.000000
vn 0.000000 -1.000000 0.000000
vn 1.000000 0.000000 0.000000
vn 1.000000 0.000000 0.000000
vn 1.000000 0.000000 0.000000
vn 1.000000 0.000000 0.000000
vn 1.000000 0.000000 0.000000
vn 1.000000 0.000000 0.000000
vn 1.000000 0.000000 0.000000
vn 1.000000 0.000000 0.000000
s 1
g casa
usemtl lambert13SG
f 11/16/1 12/64/2 3/3/3
f 3/3/3 12/64/2 4/4/4
s 2
f 3/3/5 4/4/6 20/27/7
f 20/27/7 4/4/6 19/25/8
s 3
f 5/5/9 6/6/10 10/15/11
f 10/15/11 6/6/10 9/12/12
s 4
f 12/17/13 24/31/14 4/4/15
f 4/4/15 24/31/14 19/25/16
s 5
f 21/28/17 11/16/18 20/26/19
f 20/26/19 11/16/18 3/3/20
s 3
f 10/15/11 9/12/12 7/7/21
f 7/7/21 9/12/12 8/8/22
s 5
f 22/29/23 1/1/24 21/28/17
f 21/28/17 1/1/24 11/16/18
s 1
f 1/1/25 2/2/26 11/16/1
f 11/16/1 2/2/26 12/64/2
s 4
f 2/65/27 23/30/28 12/17/13
f 12/17/13 23/30/28 24/31/14
s 2
f 14/20/29 13/18/30 5/5/31
f 5/5/31 13/18/30 6/6/32
s 5
f 10/14/33 15/21/34 5/11/35
f 5/11/35 15/21/34 14/19/36
f 7/10/37 16/22/38 10/14/33
f 10/14/33 16/22/38 15/21/34
s 4
f 18/24/39 17/23/40 9/13/41
f 9/13/41 17/23/40 8/9/42
f 13/18/43 18/24/39 6/6/44
f 6/6/44 18/24/39 9/13/41
s 2
f 20/27/7 19/25/8 14/20/29
f 14/20/29 19/25/8 13/18/30
s 5
f 15/21/34 21/28/17 14/19/36
f 14/19/36 21/28/17 20/26/19
s 4
f 19/25/16 24/31/14 13/18/43
f 13/18/43 24/31/14 18/24/39
s 10
f 21/32/45 15/33/46 26/35/47
f 26/35/47 15/33/46 25/34/48
s 11
f 15/33/49 16/36/50 25/34/51
f 25/34/51 16/36/50 27/37/52
s 12
f 22/38/53 21/32/54 28/39/55
f 28/39/55 21/32/54 26/35/56
s 13
f 17/40/57 18/41/58 29/43/59
f 29/43/59 18/41/58 30/42/60
s 14
f 18/41/61 24/44/62 30/42/63
f 30/42/63 24/44/62 31/45/64
s 15
f 24/44/65 23/46/66 31/45/67
f 31/45/67 23/46/66 32/47/68
s 16
f 26/35/69 25/34/70 34/49/71
f 34/49/71 25/34/70 33/48/72
s 17
f 30/42/73 31/45/74 36/51/75
f 36/51/75 31/45/74 35/50/76
s 18
f 26/35/77 34/49/78 37/53/79
f 37/53/79 34/49/78 38/52/80
s 19
f 35/50/81 31/45/82 40/55/83
f 40/55/83 31/45/82 39/54/84
s 20
f 33/48/85 25/34/86 42/57/87
f 42/57/87 25/34/86 41/56/88
s 21
f 30/42/89 36/51/90 43/59/91
f 43/59/91 36/51/90 44/58/92
s 22
f 37/53/93 38/52/94 39/54/95
f 39/54/95 38/52/94 40/55/96
s 23
f 42/57/97 41/56/98 44/58/99
f 44/58/99 41/56/98 43/59/100
s 24
f 37/53/101 39/54/102 45/61/103
f 45/61/103 39/54/102 46/60/104
s 25
f 43/59/105 41/56/106 48/63/107
f 48/63/107 41/56/106 47/62/108
s 26
f 31/45/109 32/47/110 39/54/111
f 39/54/111 32/47/110 46/60/112
s 27
f 29/43/113 30/42/114 48/63/115
f 48/63/115 30/42/114 43/59/116
s 28
f 38/52/117 34/49/118 40/55/119
f 40/55/119 34/49/118 35/50/120
s 29
f 34/49/121 33/48/122 35/50/123
f 35/50/123 33/48/122 36/51/124
s 30
f 33/48/125 42/57/126 36/51/127
f 36/51/127 42/57/126 44/58/128
s 31
f 28/39/129 26/35/130 45/61/131
f 45/61/131 26/35/130 37/53/132
s 32
f 25/34/133 27/37/134 41/56/135
f 41/56/135 27/37/134 47/62/136
